<svg width="40" height="44" viewBox="0 0 40 44" fill="none" xmlns="http://www.w3.org/2000/svg">
<path d="M39.6 36.8C39.8 36.8 39.8 37 39.6 37.2L37.6 40.6C37.4 40.8 37.2 40.8 37 40.8L34.6 40C34 40.4 33.6 40.6 33 41L32.6 43.6C32.6 43.8 32.4 44 32.2 44H28.2C28 44 27.8 43.8 27.6 43.6L27.2 41C26.6 40.8 26 40.4 25.6 40L23.2 41C23 41 22.8 41 22.6 40.8L20.6 37.4C20.4 37.2 20.6 37 20.8 36.8L23 35.2V33.2L20.8 31.6C20.6 31.4 20.6 31.2 20.6 31L22.6 27.6C22.8 27.4 23 27.4 23.2 27.4L25.6 28.4C26.2 28 26.6 27.8 27.2 27.4L27.6 24.8C27.6 24.6 27.8 24.4 28.2 24.4H32.2C32.4 24.4 32.6 24.6 32.6 24.8L33 27.4C33.6 27.6 34.2 28 34.8 28.4L37.2 27.4C37.4 27.4 37.8 27.4 37.8 27.6L39.8 31C40 31.2 39.8 31.4 39.6 31.6L37.4 33.2V35.2L39.6 36.8ZM33 34C33 32.4 31.6 31 30 31C28.4 31 27 32.4 27 34C27 35.6 28.4 37 30 37C31.6 37 33 35.6 33 34ZM20 26V14H16V26M24 0H12V4H24V0ZM16.6 38C9.6 37.2 4 31.2 4 24C4 16.2 10.2 10 18 10C24.4 10 29.8 14.2 31.4 20C33 20.2 34.4 20.6 35.8 21.2C35.2 18 34 15.2 32 12.8L35 10C34 9 33 8 32 7.2L29.2 10C26.2 7.4 22.2 6 18 6C8 6 0 14 0 24C0 34 8 42 18 42H18.6C17.6 40.8 17 39.4 16.6 38Z" fill="black" fill-opacity="0.6"/>
</svg>
