<svg width="37" height="30" viewBox="0 0 37 30" fill="none" xmlns="http://www.w3.org/2000/svg">
<path d="M9 1H37V5H9V1ZM9 17V13H37V17H9ZM3 0C3.79565 0 4.55871 0.31607 5.12132 0.878679C5.68393 1.44129 6 2.20435 6 3C6 3.79565 5.68393 4.55871 5.12132 5.12132C4.55871 5.68393 3.79565 6 3 6C2.20435 6 1.44129 5.68393 0.87868 5.12132C0.316071 4.55871 0 3.79565 0 3C0 2.20435 0.316071 1.44129 0.87868 0.878679C1.44129 0.31607 2.20435 0 3 0ZM3 12C3.79565 12 4.55871 12.3161 5.12132 12.8787C5.68393 13.4413 6 14.2044 6 15C6 15.7956 5.68393 16.5587 5.12132 17.1213C4.55871 17.6839 3.79565 18 3 18C2.20435 18 1.44129 17.6839 0.87868 17.1213C0.316071 16.5587 0 15.7956 0 15C0 14.2044 0.316071 13.4413 0.87868 12.8787C1.44129 12.3161 2.20435 12 3 12ZM9 29V25H37V29H9ZM3 24C3.79565 24 4.55871 24.3161 5.12132 24.8787C5.68393 25.4413 6 26.2044 6 27C6 27.7956 5.68393 28.5587 5.12132 29.1213C4.55871 29.6839 3.79565 30 3 30C2.20435 30 1.44129 29.6839 0.87868 29.1213C0.316071 28.5587 0 27.7956 0 27C0 26.2044 0.316071 25.4413 0.87868 24.8787C1.44129 24.3161 2.20435 24 3 24Z" fill="black" fill-opacity="0.6"/>
</svg>
