<svg width="40" height="40" viewBox="0 0 40 40" fill="none" xmlns="http://www.w3.org/2000/svg">
<path d="M19.9997 27C18.1432 27 16.3627 26.2625 15.0499 24.9497C13.7372 23.637 12.9997 21.8565 12.9997 20C12.9997 18.1435 13.7372 16.363 15.0499 15.0503C16.3627 13.7375 18.1432 13 19.9997 13C21.8562 13 23.6367 13.7375 24.9494 15.0503C26.2622 16.363 26.9997 18.1435 26.9997 20C26.9997 21.8565 26.2622 23.637 24.9494 24.9497C23.6367 26.2625 21.8562 27 19.9997 27ZM34.8597 21.94C34.9397 21.3 34.9997 20.66 34.9997 20C34.9997 19.34 34.9397 18.68 34.8597 18L39.0797 14.74C39.4597 14.44 39.5597 13.9 39.3197 13.46L35.3197 6.54C35.0797 6.1 34.5397 5.92 34.0997 6.1L29.1197 8.1C28.0797 7.32 26.9997 6.64 25.7397 6.14L24.9997 0.84C24.9197 0.36 24.4997 0 23.9997 0H15.9997C15.4997 0 15.0797 0.36 14.9997 0.84L14.2597 6.14C12.9997 6.64 11.9197 7.32 10.8797 8.1L5.89968 6.1C5.45968 5.92 4.91968 6.1 4.67968 6.54L0.679679 13.46C0.419679 13.9 0.539679 14.44 0.919679 14.74L5.13968 18C5.05968 18.68 4.99968 19.34 4.99968 20C4.99968 20.66 5.05968 21.3 5.13968 21.94L0.919679 25.26C0.539679 25.56 0.419679 26.1 0.679679 26.54L4.67968 33.46C4.91968 33.9 5.45968 34.06 5.89968 33.9L10.8797 31.88C11.9197 32.68 12.9997 33.36 14.2597 33.86L14.9997 39.16C15.0797 39.64 15.4997 40 15.9997 40H23.9997C24.4997 40 24.9197 39.64 24.9997 39.16L25.7397 33.86C26.9997 33.34 28.0797 32.68 29.1197 31.88L34.0997 33.9C34.5397 34.06 35.0797 33.9 35.3197 33.46L39.3197 26.54C39.5597 26.1 39.4597 25.56 39.0797 25.26L34.8597 21.94Z" fill="black" fill-opacity="0.6"/>
</svg>
